<svg version="1.1" id="layer" xmlns="http://www.w3.org/2000/svg" xmlns:xlink="http://www.w3.org/1999/xlink" x="0px" y="0px"
	 viewBox="0 0 227.3 53.2" style="enable-background:new 0 0 227.3 53.2;" xml:space="preserve" width="1024px" height="247px">
<style type="text/css">
	.st0{fill:#263238;}
	.st1{fill:#FABF2C;}
</style>
<g id="Page-1">
	<g id="CT-logo-BlackYellow-tag">
		<g id="Atoms_x2F_Icons_x2F_logos_x2F_CT-GY-icon">
			<g id="Group">
				<path id="Shape" class="st0" d="M33,38.7l-9.5,4.1v-0.4c-1.8,0.5-3.9,0.7-5.8,0.8C8.8,43.2,1.8,38.5,1.7,33v-2
					c2.9,4.2,8.9,7.1,16.1,7c2.4,0.1,4.9-0.3,7-0.8l0.8-2c-2.5,0.8-5.2,1.3-7.8,1.3c-8.9,0-16-4.7-16.1-10.3v-1.7
					c2.9,3.9,8.9,6.8,16.1,6.6c3.3,0.2,6.4-0.5,9.1-1.7l0.4-2c-2.6,1.4-6,2.2-9.5,2c-8.9,0.1-16-4.5-16.1-10.3v-1.7
					c2.9,4,8.9,6.9,16.1,7c4.1-0.1,8-1.2,11.1-2.9l0.4-2.5c-2.9,2.1-7.1,3.5-11.6,3.7c-8.9-0.2-16-4.9-16.1-10.7
					C1.8,6.4,8.9,1.7,17.8,1.6c5.3,0.1,10.3,1.9,13.2,5l0.3,0.5h2.1l-0.3-0.5C30.2,2.6,24.3,0,17.8,0C7.9,0,0,5.4,0,11.9v0.4v21
					c0.3,6.4,8,11.6,17.7,11.6C24.1,44.9,29.9,42.4,33,38.7z"/>
				<path id="Shape_1_" class="st1" d="M29.1,53.2l3.3-14.2l-9.6,4.2l5.8-24.5H17.5l2.9-12.1h35.8l-2.9,12.1H41.6l-2.5,6.7l12.9-5.4
					L29.1,53.2z M35,36.2l-1.7,8.3l13.8-20.8l-11.3,5l5-11.7h11.3l2.1-8.8H21.6L19.5,17h11.3l-5.4,23.3L35,36.2z"/>
			</g>
		</g>
		<path id="Shape_2_" class="st0" d="M80,14.7L80,14.7c0,1.4-0.4,2.4-1.2,3.1c-0.8,0.8-2,1.1-3.4,1.1c-1.5,0-2.7-0.5-3.6-1.4
			c-0.9-0.9-1.4-2.2-1.4-3.7v-2.5c0-1.5,0.5-2.8,1.3-3.7c0.9-0.9,2.1-1.4,3.5-1.4c1.5,0,2.7,0.4,3.6,1.1c0.9,0.8,1.3,1.8,1.3,3.1v0
			h-2.4c0-0.8-0.2-1.4-0.6-1.8c-0.4-0.4-1-0.6-1.8-0.6c-0.8,0-1.3,0.3-1.7,0.9s-0.6,1.4-0.6,2.3v2.5c0,0.9,0.2,1.7,0.6,2.3
			c0.5,0.6,1.1,0.9,1.9,0.9c0.8,0,1.3-0.2,1.7-0.6c0.4-0.4,0.6-1,0.6-1.8L80,14.7L80,14.7z M93.7,13.7c0,1.5-0.5,2.8-1.4,3.8
			c-0.9,1-2.2,1.5-3.8,1.5s-2.8-0.5-3.8-1.5c-0.9-1-1.4-2.3-1.4-3.8v-2.2c0-1.5,0.5-2.8,1.4-3.8c0.9-1,2.2-1.5,3.7-1.5
			c1.6,0,2.8,0.5,3.8,1.5c1,1,1.4,2.3,1.4,3.8L93.7,13.7L93.7,13.7z M91.2,11.4c0-1-0.2-1.7-0.7-2.4c-0.5-0.6-1.1-0.9-2-0.9
			c-0.8,0-1.5,0.3-2,0.9c-0.5,0.6-0.7,1.4-0.7,2.4v2.2c0,1,0.2,1.8,0.7,2.4c0.5,0.6,1.1,0.9,2,0.9c0.9,0,1.5-0.3,2-0.9
			c0.5-0.6,0.7-1.4,0.7-2.4V11.4z M100.1,18.8h-2.5V6.4h2.5V18.8z M114.5,18.8H112l-5-8.4h0v8.4h-2.5V6.4h2.5l5,8.4h0V6.4h2.5V18.8z
			 M127,8.3h-3.6v10.5H121V8.3h-3.5V6.4h9.5V8.3z M137.3,13.3h-4.6v3.6h5.5v1.9h-8V6.4h8v1.9h-5.5v3.1h4.6L137.3,13.3L137.3,13.3z
			 M144.3,16.9h5.6v1.9h-8.1V6.4h2.5L144.3,16.9L144.3,16.9z M160.4,13.3h-4.6v3.6h5.5v1.9h-8V6.4h8v1.9h-5.5v3.1h4.6L160.4,13.3
			L160.4,13.3z M174.4,17.1c-0.4,0.5-0.9,0.9-1.7,1.3c-0.8,0.4-1.7,0.6-3,0.6c-1.5,0-2.7-0.5-3.7-1.4c-0.9-0.9-1.4-2.2-1.4-3.7v-2.6
			c0-1.5,0.5-2.7,1.4-3.7c0.9-0.9,2.1-1.4,3.6-1.4c1.5,0,2.7,0.4,3.5,1.1c0.8,0.7,1.2,1.7,1.2,2.9v0h-2.3c0-0.6-0.2-1.2-0.6-1.6
			c-0.4-0.4-0.9-0.6-1.7-0.6c-0.8,0-1.4,0.3-1.9,0.9c-0.5,0.6-0.7,1.4-0.7,2.3v2.6c0,0.9,0.2,1.7,0.7,2.3c0.5,0.6,1.1,0.9,1.9,0.9
			c0.6,0,1.1-0.1,1.4-0.2s0.6-0.3,0.8-0.5V14h-2.4v-1.7h4.9L174.4,17.1L174.4,17.1z M180.9,13.8v5h-2.5V6.4h4.3c1.4,0,2.5,0.3,3.3,1
			c0.8,0.6,1.2,1.6,1.2,2.7c0,0.6-0.2,1.2-0.5,1.7c-0.3,0.5-0.8,0.8-1.5,1.1c0.7,0.2,1.3,0.6,1.6,1.1c0.3,0.5,0.5,1.1,0.5,1.9v0.9
			c0,0.3,0,0.7,0.2,1.1c0.1,0.4,0.3,0.6,0.5,0.8v0.2h-2.6c-0.2-0.2-0.4-0.5-0.5-0.9c-0.1-0.4-0.1-0.8-0.1-1.2v-0.9
			c0-0.6-0.2-1.1-0.5-1.4c-0.3-0.3-0.8-0.5-1.4-0.5L180.9,13.8L180.9,13.8z M180.9,11.9h1.8c0.7,0,1.2-0.2,1.6-0.5
			c0.3-0.3,0.5-0.7,0.5-1.3c0-0.6-0.2-1-0.5-1.4c-0.3-0.3-0.8-0.5-1.5-0.5h-1.8V11.9L180.9,11.9z M197.8,16.1h-4l-0.8,2.7h-2.6
			l4.2-12.4h2.5l4.2,12.4h-2.6L197.8,16.1z M194.4,14.2h2.8l-1.4-4.4h0L194.4,14.2z M206.8,14.3v4.5h-2.5V6.4h4.8
			c1.4,0,2.5,0.4,3.4,1.1c0.8,0.7,1.2,1.7,1.2,2.9s-0.4,2.2-1.2,2.9c-0.8,0.7-1.9,1.1-3.4,1.1L206.8,14.3L206.8,14.3z M206.8,12.4
			h2.3c0.7,0,1.2-0.2,1.6-0.6c0.3-0.4,0.5-0.9,0.5-1.4c0-0.6-0.2-1.1-0.5-1.5c-0.3-0.4-0.9-0.6-1.6-0.6h-2.3V12.4z M227.3,18.8h-2.5
			v-5.2h-5.1v5.2h-2.5V6.4h2.5v5.3h5.1V6.4h2.5V18.8z"/>
		<g id="Tag_x2F_The-future-of-money-_x2014_-dark-grey" transform="translate(169.000000, 69.000000)">
			<path id="The-future-of-money" class="st0" d="M-94.1-29.9h-1.6v-8.2h-2.8v-1.3h7.2v1.3h-2.8C-94.1-38.1-94.1-29.9-94.1-29.9z
				 M-83.7-29.9h-1.6v-4.4c0-0.6-0.1-1-0.3-1.3c-0.2-0.3-0.6-0.4-1.1-0.4c-0.6,0-1.1,0.2-1.4,0.6c-0.3,0.4-0.5,1-0.5,1.9v3.6H-90
				v-10.1h1.5v2.6c0,0.4,0,0.8-0.1,1.3h0.1c0.2-0.3,0.5-0.6,0.9-0.8c0.4-0.2,0.8-0.3,1.3-0.3c1.7,0,2.6,0.9,2.6,2.7V-29.9z
				 M-78.4-29.8c-1.1,0-2-0.3-2.6-1c-0.6-0.6-0.9-1.6-0.9-2.7c0-1.2,0.3-2.1,0.9-2.8s1.4-1,2.4-1c0.9,0,1.7,0.3,2.2,0.9
				c0.6,0.6,0.8,1.4,0.8,2.4v0.8h-4.8c0,0.7,0.2,1.3,0.6,1.6c0.3,0.4,0.9,0.6,1.5,0.6c0.4,0,0.8,0,1.2-0.1c0.4-0.1,0.8-0.2,1.2-0.4
				v1.3c-0.4,0.2-0.8,0.3-1.1,0.4C-77.5-29.8-77.9-29.8-78.4-29.8z M-78.7-36.1c-0.5,0-0.9,0.2-1.2,0.5c-0.3,0.3-0.5,0.8-0.5,1.4
				h3.3c0-0.6-0.2-1.1-0.4-1.4S-78.2-36.1-78.7-36.1z M-66.8-36h-1.7v6.1h-1.6V-36h-1.2v-0.7l1.2-0.5v-0.5c0-0.8,0.2-1.5,0.6-1.9
				c0.4-0.4,1-0.6,1.8-0.6c0.5,0,1.1,0.1,1.6,0.3l-0.4,1.2c-0.4-0.1-0.7-0.2-1.1-0.2c-0.3,0-0.6,0.1-0.8,0.3
				c-0.2,0.2-0.2,0.5-0.2,0.9v0.5h1.7L-66.8-36L-66.8-36z M-60.5-29.9l-0.2-0.9h-0.1c-0.2,0.3-0.5,0.6-0.9,0.8s-0.8,0.3-1.3,0.3
				c-0.9,0-1.5-0.2-2-0.6c-0.5-0.4-0.6-1.1-0.6-2v-4.7h1.6v4.4c0,0.6,0.1,0.9,0.3,1.3c0.2,0.3,0.6,0.4,1.1,0.4
				c0.6,0,1.1-0.2,1.4-0.6c0.3-0.4,0.5-1,0.5-1.9v-3.6h1.6v7.2H-60.5z M-54.4-31c0.4,0,0.8-0.1,1.1-0.2v1.1
				c-0.2,0.1-0.4,0.2-0.6,0.2c-0.3,0-0.5,0.1-0.8,0.1c-1.4,0-2.2-0.8-2.2-2.3V-36h-1v-0.7l1.1-0.6l0.5-1.5h0.9v1.6h2v1.2h-2v3.9
				c0,0.4,0.1,0.6,0.3,0.8C-55-31.1-54.7-31-54.4-31z M-46.8-29.9l-0.2-0.9h-0.1c-0.2,0.3-0.5,0.6-0.9,0.8s-0.8,0.3-1.3,0.3
				c-0.9,0-1.5-0.2-2-0.6c-0.4-0.4-0.6-1.1-0.6-2v-4.7h1.6v4.4c0,0.6,0.1,0.9,0.3,1.3c0.2,0.3,0.6,0.4,1.1,0.4
				c0.6,0,1.1-0.2,1.4-0.6c0.3-0.4,0.5-1,0.5-1.9v-3.6h1.6v7.2H-46.8z M-39.8-37.3c0.3,0,0.6,0,0.8,0.1l-0.2,1.4
				c-0.2,0-0.5-0.1-0.7-0.1c-0.6,0-1.1,0.2-1.5,0.6c-0.4,0.4-0.6,0.9-0.6,1.6v3.8h-1.5v-7.2h1.2l0.2,1.3h0.1c0.2-0.4,0.6-0.8,0.9-1
				C-40.7-37.1-40.2-37.3-39.8-37.3z M-34.8-29.8c-1.1,0-2-0.3-2.6-1c-0.6-0.6-0.9-1.6-0.9-2.7c0-1.2,0.3-2.1,0.9-2.8
				c0.6-0.7,1.4-1,2.4-1c0.9,0,1.7,0.3,2.2,0.9C-32.3-35.8-32-35-32-34v0.8h-4.8c0,0.7,0.2,1.3,0.6,1.6c0.3,0.4,0.9,0.6,1.5,0.6
				c0.4,0,0.8,0,1.2-0.1c0.4-0.1,0.8-0.2,1.2-0.4v1.3c-0.4,0.2-0.8,0.3-1.1,0.4C-33.9-29.8-34.3-29.8-34.8-29.8z M-35.1-36.1
				c-0.5,0-0.9,0.2-1.2,0.5c-0.3,0.3-0.5,0.8-0.5,1.4h3.3c0-0.6-0.2-1.1-0.4-1.4C-34.2-35.9-34.6-36.1-35.1-36.1z M-20.5-33.5
				c0,1.2-0.3,2.1-0.9,2.8c-0.6,0.6-1.4,1-2.5,1c-0.7,0-1.3-0.2-1.8-0.5c-0.5-0.3-0.9-0.8-1.2-1.3c-0.3-0.6-0.4-1.2-0.4-2
				c0-1.2,0.3-2.1,0.9-2.7c0.6-0.6,1.4-1,2.5-1c1,0,1.9,0.3,2.5,1C-20.7-35.5-20.5-34.7-20.5-33.5z M-25.7-33.5
				c0,1.7,0.6,2.5,1.9,2.5c1.2,0,1.8-0.8,1.8-2.5c0-1.6-0.6-2.5-1.8-2.5c-0.6,0-1.1,0.2-1.4,0.6C-25.5-34.9-25.7-34.3-25.7-33.5z
				 M-15.1-36h-1.7v6.1h-1.6V-36h-1.2v-0.7l1.2-0.5v-0.5c0-0.8,0.2-1.5,0.6-1.9c0.4-0.4,1-0.6,1.8-0.6c0.5,0,1.1,0.1,1.6,0.3
				l-0.4,1.2c-0.4-0.1-0.7-0.2-1.1-0.2c-0.3,0-0.6,0.1-0.8,0.3c-0.2,0.2-0.2,0.5-0.2,0.9v0.5h1.7L-15.1-36L-15.1-36z M-4.3-29.9
				h-1.6v-4.4c0-0.6-0.1-0.9-0.3-1.3c-0.2-0.3-0.5-0.4-1-0.4c-0.6,0-1,0.2-1.3,0.6c-0.3,0.4-0.4,1-0.4,1.9v3.6h-1.5v-7.2h1.2
				l0.2,0.9h0.1c0.2-0.3,0.5-0.6,0.9-0.8c0.4-0.2,0.8-0.3,1.3-0.3c1.1,0,1.9,0.4,2.2,1.1h0.1c0.2-0.3,0.5-0.6,0.9-0.8
				c0.4-0.2,0.8-0.3,1.3-0.3c0.9,0,1.5,0.2,1.9,0.6c0.4,0.4,0.6,1.1,0.6,2v4.7h-1.5v-4.4c0-0.6-0.1-0.9-0.3-1.3
				C-1.7-35.9-2-36-2.5-36c-0.6,0-1,0.2-1.3,0.6c-0.3,0.4-0.4,0.9-0.4,1.7v3.8H-4.3z M8.7-33.5c0,1.2-0.3,2.1-0.9,2.8
				c-0.6,0.6-1.4,1-2.5,1c-0.7,0-1.3-0.2-1.8-0.5C3-30.5,2.6-31,2.3-31.6s-0.4-1.2-0.4-2c0-1.2,0.3-2.1,0.9-2.7s1.4-1,2.5-1
				c1,0,1.9,0.3,2.5,1C8.4-35.5,8.7-34.7,8.7-33.5z M3.5-33.5c0,1.7,0.6,2.5,1.9,2.5c1.2,0,1.8-0.8,1.8-2.5c0-1.6-0.6-2.5-1.8-2.5
				c-0.6,0-1.1,0.2-1.4,0.6C3.6-34.9,3.5-34.3,3.5-33.5z M16.8-29.9h-1.6v-4.4c0-0.6-0.1-1-0.3-1.3c-0.2-0.3-0.6-0.4-1.1-0.4
				c-0.6,0-1.1,0.2-1.4,0.6c-0.3,0.4-0.5,1-0.5,1.9v3.6h-1.5v-7.2h1.2l0.2,0.9H12c0.2-0.3,0.5-0.6,0.9-0.8c0.4-0.2,0.8-0.3,1.3-0.3
				c1.7,0,2.6,0.9,2.6,2.7V-29.9z M22.1-29.8c-1.1,0-2-0.3-2.6-1c-0.6-0.6-0.9-1.6-0.9-2.7c0-1.2,0.3-2.1,0.9-2.8
				c0.6-0.7,1.4-1,2.4-1c0.9,0,1.7,0.3,2.2,0.9c0.6,0.6,0.8,1.4,0.8,2.4v0.8h-4.8c0,0.7,0.2,1.3,0.6,1.6c0.3,0.4,0.9,0.6,1.5,0.6
				c0.4,0,0.8,0,1.2-0.1c0.3-0.1,0.8-0.2,1.2-0.4v1.3c-0.4,0.2-0.8,0.3-1.1,0.4C23-29.8,22.6-29.8,22.1-29.8z M21.8-36.1
				c-0.5,0-0.9,0.2-1.2,0.5c-0.3,0.3-0.5,0.8-0.5,1.4h3.3c0-0.6-0.2-1.1-0.4-1.4C22.7-35.9,22.3-36.1,21.8-36.1z M25.3-37.1h1.7
				l1.5,4.1c0.2,0.6,0.4,1.1,0.5,1.6h0c0-0.2,0.1-0.5,0.2-0.9c0.1-0.3,0.6-2,1.7-4.8h1.7L29.4-29c-0.6,1.5-1.5,2.2-2.8,2.2
				c-0.3,0-0.7,0-1-0.1V-28c0.2,0,0.5,0.1,0.8,0.1c0.7,0,1.3-0.4,1.6-1.3l0.3-0.7L25.3-37.1z"/>
		</g>
	</g>
</g>
</svg>
