<?xml version="1.0" encoding="utf-8"?>
<!-- Generator: Adobe Illustrator 24.2.0, SVG Export Plug-In . SVG Version: 6.00 Build 0)  -->
<svg version="1.0" id="Layer_1" xmlns="http://www.w3.org/2000/svg" xmlns:xlink="http://www.w3.org/1999/xlink" x="0px" y="0px"
	 viewBox="0 0 300 280" enable-background="new 0 0 300 280" xml:space="preserve">
<g>
	<polygon fill="none" points="171.7,98.29 128.3,98.29 102.8,139.99 128.3,181.71 171.7,181.71 197.2,139.99 	"/>
	<polygon fill="none" points="197.2,139.99 171.7,98.29 197.2,139.99 	"/>
	<polygon fill="none" points="128.3,181.71 128.3,181.71 102.8,139.99 	"/>
	<polygon fill="none" points="128.3,98.29 102.8,139.99 128.3,98.29 	"/>
	<polygon fill="#547DBF" points="171.7,181.71 197.2,139.99 197.2,139.99 	"/>
	<path fill="#547DBF" d="M171.7,98.29l25.5,41.7l0,0l0,0l33.17-54.28l-18.09-31.33c-3.97-6.88-11.31-11.12-19.26-11.12h-31.06
		L128.3,98.29H171.7z"/>
	<path fill="#547DBF" d="M171.7,181.71H128.3l33.64,55.03h31.07c7.95,0,15.29-4.24,19.26-11.12l18.11-31.36l-33.18-54.27
		L171.7,181.71z"/>
	<path fill="#3869B2" d="M128.3,98.29l33.65-55.03h-54.97c-7.95,0-15.29,4.24-19.26,11.12L62.37,98.29H128.3L128.3,98.29z"/>
	<path fill="#3869B2" d="M255.29,128.87l-24.92-43.15l-33.17,54.28l33.18,54.27l24.91-43.14
		C259.27,144.23,259.27,135.75,255.29,128.87z"/>
	<path fill="#3869B2" d="M128.3,181.71H62.37l25.35,43.91c3.97,6.88,11.31,11.12,19.26,11.12h54.95L128.3,181.71L128.3,181.71z"/>
	<path fill="#547DBF" d="M102.8,139.99l25.5-41.7H62.37l-17.66,30.58c-3.97,6.88-3.97,15.36,0,22.25l17.66,30.6h65.93L102.8,139.99z
		"/>
</g>
</svg>
